<?xml version="1.0" encoding="UTF-8" standalone="no"?>
<svg
   xmlns:dc="http://purl.org/dc/elements/1.1/"
   xmlns:cc="http://creativecommons.org/ns#"
   xmlns:rdf="http://www.w3.org/1999/02/22-rdf-syntax-ns#"
   xmlns:svg="http://www.w3.org/2000/svg"
   xmlns="http://www.w3.org/2000/svg"
   xmlns:sodipodi="http://sodipodi.sourceforge.net/DTD/sodipodi-0.dtd"
   xmlns:inkscape="http://www.inkscape.org/namespaces/inkscape"
   width="116.93917mm"
   height="109.90633mm"
   viewBox="0 0 116.93917 109.90633"
   version="1.1"
   id="svg8"
   inkscape:version="1.0.2 (e86c870879, 2021-01-15)"
   sodipodi:docname="eureddeer_icon.svg">
  <defs
     id="defs2">
    <clipPath
       clipPathUnits="userSpaceOnUse"
       id="clipPath867">
      <path
         d="M 0,850.39 H 1598.74 V 0 H 0 Z"
         id="path865" />
    </clipPath>
    <clipPath
       clipPathUnits="userSpaceOnUse"
       id="clipPath1025">
      <path
         d="M 0,850.39 H 1598.74 V 0 H 0 Z"
         id="path1023" />
    </clipPath>
    <clipPath
       clipPathUnits="userSpaceOnUse"
       id="clipPath1041">
      <path
         d="M 0,850.39 H 1598.74 V 0 H 0 Z"
         id="path1039" />
    </clipPath>
  </defs>
  <sodipodi:namedview
     id="base"
     pagecolor="#ffffff"
     bordercolor="#666666"
     borderopacity="1.0"
     inkscape:pageopacity="0.0"
     inkscape:pageshadow="2"
     inkscape:zoom="0.35"
     inkscape:cx="226.70868"
     inkscape:cy="367.26904"
     inkscape:document-units="mm"
     inkscape:current-layer="layer1"
     inkscape:document-rotation="0"
     showgrid="false"
     inkscape:window-width="1920"
     inkscape:window-height="1016"
     inkscape:window-x="0"
     inkscape:window-y="27"
     inkscape:window-maximized="1"
     fit-margin-top="0"
     fit-margin-left="0"
     fit-margin-right="0"
     fit-margin-bottom="0" />
  <metadata
     id="metadata5">
    <rdf:RDF>
      <cc:Work
         rdf:about="">
        <dc:format>image/svg+xml</dc:format>
        <dc:type
           rdf:resource="http://purl.org/dc/dcmitype/StillImage" />
        <dc:title></dc:title>
      </cc:Work>
    </rdf:RDF>
  </metadata>
  <g
     inkscape:label="Layer 1"
     inkscape:groupmode="layer"
     id="layer1"
     transform="translate(-45.849995,-50.993401)">
    <ellipse
       style="fill:#c3a717;fill-opacity:1;stroke:#000000;stroke-width:1;stroke-miterlimit:4;stroke-dasharray:none;stroke-opacity:1"
       id="path965"
       cx="104.31958"
       cy="105.94656"
       rx="57.969585"
       ry="54.453163" />
    <g
       id="g1017"
       inkscape:label="CERVO_P"
       transform="matrix(0.35277777,0,0,-0.35277777,-172.52356,65.14066)">
      <g
         id="g1110"
         transform="translate(383.8816,-329.5755)">
        <g
           id="g1108"
           clip-path="url(#clipPath1025)">
          <g
             id="g1106"
             transform="translate(498.54608,326.53857)"
             style="stroke-width:1.00063;stroke-miterlimit:4;stroke-dasharray:none">
            <path
               d="m 0,0 c 1.101,6.686 -2.169,13.817 -8.666,16.476 1.702,-2.826 5.128,-5.062 5.262,-8.666 0.445,-5.852 -2.002,-11.593 -5.207,-16.366 -1.123,-1.902 -3.471,-1.801 -5.384,-2.091 -0.412,0.69 -1.235,2.081 -1.657,2.771 1.034,7.186 1.701,16.264 -4.651,21.326 2.191,-5.151 4.25,-11.048 1.647,-16.487 -0.334,-1.869 -2.926,-3.316 -4.339,-1.625 -3.549,4.05 -5.496,9.323 -9.623,12.939 2.414,-8.366 8.788,-15.03 10.48,-23.663 1.523,-6.798 1.1,-14.93 -3.739,-20.359 -1.735,-1.869 -5.818,-4.327 -7.342,-0.967 0.278,5.306 3.426,11.402 -1.346,15.775 1.046,-7.188 -0.612,-15.108 -5.808,-20.404 -4.138,-3.326 -8.844,-6.486 -10.546,-11.815 -1.313,-4.461 -7.632,-5.607 -10.636,-2.18 -1.624,2.492 -2.324,5.54 -4.438,7.71 -3.493,3.916 -8.889,6.174 -10.859,11.347 -2.614,4.695 -2.758,10.146 -2.125,15.353 -1.813,-2.215 -3.592,-4.94 -2.703,-7.954 0.123,-3.104 2.47,-6.787 0.023,-9.491 -3.816,-0.355 -6.899,2.76 -8.478,5.919 -3.115,6.953 -2.714,15.075 0.145,22.038 2.381,6.531 7.154,11.927 8.922,18.702 -3.559,-3.338 -5.751,-7.732 -8.511,-11.682 -0.889,-1.479 -3.115,-3.014 -4.493,-1.201 -3.862,5.474 -1.737,12.471 0.688,18.067 -5.628,-4.572 -5.796,-12.527 -4.905,-19.124 0.478,-1.802 -0.201,-4.695 -2.392,-4.828 -2.781,-0.746 -4.584,1.891 -5.707,3.982 -2.348,4.395 -4.361,9.301 -3.805,14.374 0.077,3.593 3.527,5.796 5.206,8.589 -3.76,-1.958 -7.208,-5.007 -8.243,-9.256 -1.969,-7.721 1.324,-15.508 5.629,-21.794 2.281,-3.604 5.485,-6.753 6.786,-10.892 0.835,-3.37 -3.826,-5.784 -6.297,-3.526 -4.494,3.515 -6.284,9.245 -9.044,14.029 0.134,-8.4 3.605,-17.211 10.947,-21.795 9.201,-5.829 20.18,-7.643 30.327,-11.169 5.006,-1.947 9.2,-7.854 7.075,-13.261 -5.618,3.861 -12.683,6.43 -19.323,3.527 4.105,-4.272 7.954,-11.081 14.751,-10.313 -0.969,-3.86 1.102,-7.365 1.947,-11.003 0.067,-2.725 -1.446,-5.196 -2.158,-7.765 -1.246,-3.327 -1.803,-7.632 -5.508,-9.166 -6.707,-3.127 -14.318,-3.183 -21.482,-4.618 -5.006,-0.624 -9.6,-2.703 -14.296,-4.405 -13.539,-4.117 -28.246,1.713 -41.574,-3.572 -5.873,-2.18 -11.614,-5.273 -15.83,-9.99 -3.371,-3.827 -5.541,-9.512 -2.949,-14.34 1.502,2.514 2.849,5.117 4.206,7.709 0.645,0.012 1.936,0.045 2.592,0.068 -3.538,-8.689 -3.505,-18.157 -2.102,-27.301 -0.079,-9.301 -5.853,-17.667 -12.227,-24.031 0.134,-10.224 0.635,-20.447 1.49,-30.627 0.045,-1.935 1.247,-3.537 1.947,-5.263 -0.522,-3.191 -1.235,-6.373 -1.201,-9.645 3.615,-0.233 7.254,-0.21 10.836,0.346 -0.078,6.007 -3.616,10.947 -5.752,16.309 -1.012,6.831 -1.502,13.772 -1.479,20.682 0.066,3.905 0.945,8.654 4.828,10.546 1.88,-9.01 5.451,-17.543 9.445,-25.787 2.047,-4.118 3.438,-8.568 6.041,-12.394 -0.101,-3.17 -0.179,-6.341 -0.189,-9.523 3.415,-0.6 7.008,-1.524 10.413,-0.378 0.822,3.925 -0.857,8.01 -2.604,11.503 -3.871,7.176 -6.597,14.875 -10.19,22.182 -1.891,4.518 -4.594,8.923 -4.795,13.941 -0.1,2.904 2.091,5.129 4.15,6.875 4.216,3.66 9.8,4.973 14.596,7.654 3.994,2.114 7.376,5.151 10.601,8.255 13.04,-0.322 25.8,-3.95 38.872,-3.505 0.734,-7.241 2.48,-14.307 4.249,-21.348 1.069,-3.727 -0.022,-7.587 0.4,-11.37 2.593,-11.192 0.446,-22.917 3.56,-34.042 5.841,-1.247 11.893,-1.08 17.734,0.022 -1.58,3.971 -4.451,7.198 -6.408,10.947 -1.836,6.774 -2.036,14.017 -0.667,20.902 1.091,4.742 -0.679,9.546 0.3,14.286 1.347,6.919 4.95,13.194 5.94,20.214 0.212,4.028 3.794,6.453 5.707,9.69 2.415,4.072 7.799,4.717 10.392,8.61 3.181,4.707 3.904,10.536 4.427,16.054 0.49,9.657 0.023,19.325 0.112,28.992 2.436,3.783 5.017,7.676 5.673,12.226 0.612,4.039 3.049,7.821 2.114,12.026 6.764,-0.656 10.569,6.097 14.697,10.336 -6.643,2.925 -13.696,0.389 -19.28,-3.527 -2.225,5.24 1.835,11.114 6.675,13.127 10.301,3.649 21.482,5.463 30.827,11.403 7.264,4.673 10.613,13.373 10.791,21.739 -2.948,-5.006 -4.695,-11.359 -9.89,-14.585 -2.525,-1.368 -4.405,1.235 -6.185,2.581 C -9.823,-17.566 -0.901,-10.569 0,0"
               style="fill:#ffffff;fill-opacity:1;fill-rule:nonzero;stroke:none;stroke-width:1.00063;stroke-miterlimit:4;stroke-dasharray:none"
               id="path1104" />
          </g>
        </g>
      </g>
    </g>
  </g>
</svg>
