<?xml version="1.0" encoding="UTF-8" standalone="no"?>
<svg
   xmlns:dc="http://purl.org/dc/elements/1.1/"
   xmlns:cc="http://creativecommons.org/ns#"
   xmlns:rdf="http://www.w3.org/1999/02/22-rdf-syntax-ns#"
   xmlns:svg="http://www.w3.org/2000/svg"
   xmlns="http://www.w3.org/2000/svg"
   xmlns:sodipodi="http://sodipodi.sourceforge.net/DTD/sodipodi-0.dtd"
   xmlns:inkscape="http://www.inkscape.org/namespaces/inkscape"
   width="116.93917mm"
   height="109.90633mm"
   viewBox="0 0 116.93917 109.90633"
   version="1.1"
   id="svg8"
   inkscape:version="1.0.2 (e86c870879, 2021-01-15)"
   sodipodi:docname="eurocam_icon.svg">
  <defs
     id="defs2">
    <clipPath
       clipPathUnits="userSpaceOnUse"
       id="clipPath867">
      <path
         d="M 0,850.39 H 1598.74 V 0 H 0 Z"
         id="path865" />
    </clipPath>
    <clipPath
       clipPathUnits="userSpaceOnUse"
       id="clipPath1025">
      <path
         d="M 0,850.39 H 1598.74 V 0 H 0 Z"
         id="path1023" />
    </clipPath>
    <clipPath
       clipPathUnits="userSpaceOnUse"
       id="clipPath1041">
      <path
         d="M 0,850.39 H 1598.74 V 0 H 0 Z"
         id="path1039" />
    </clipPath>
    <clipPath
       clipPathUnits="userSpaceOnUse"
       id="clipPath1164">
      <path
         d="M 0,850.39 H 1598.74 V 0 H 0 Z"
         id="path1162" />
    </clipPath>
    <clipPath
       clipPathUnits="userSpaceOnUse"
       id="clipPath1180">
      <path
         d="M 0,850.39 H 1598.74 V 0 H 0 Z"
         id="path1178" />
    </clipPath>
    <clipPath
       clipPathUnits="userSpaceOnUse"
       id="clipPath1289">
      <path
         d="M 0,379.485 H 1456.056 V 0 H 0 Z"
         id="path1287" />
    </clipPath>
    <clipPath
       clipPathUnits="userSpaceOnUse"
       id="clipPath1398">
      <path
         d="M 0,850.39 H 1598.74 V 0 H 0 Z"
         id="path1396" />
    </clipPath>
    <clipPath
       clipPathUnits="userSpaceOnUse"
       id="clipPath1516">
      <path
         d="M 0,850.39 H 1598.74 V 0 H 0 Z"
         id="path1514" />
    </clipPath>
    <clipPath
       clipPathUnits="userSpaceOnUse"
       id="clipPath1540">
      <path
         d="M 0,850.39 H 1598.74 V 0 H 0 Z"
         id="path1538" />
    </clipPath>
    <clipPath
       clipPathUnits="userSpaceOnUse"
       id="clipPath1623">
      <path
         d="M 0,850.39 H 1598.74 V 0 H 0 Z"
         id="path1621" />
    </clipPath>
  </defs>
  <sodipodi:namedview
     id="base"
     pagecolor="#ffffff"
     bordercolor="#666666"
     borderopacity="1.0"
     inkscape:pageopacity="0.0"
     inkscape:pageshadow="2"
     inkscape:zoom="0.35"
     inkscape:cx="318.51249"
     inkscape:cy="438.65578"
     inkscape:document-units="mm"
     inkscape:current-layer="layer1"
     inkscape:document-rotation="0"
     showgrid="false"
     inkscape:window-width="1920"
     inkscape:window-height="1016"
     inkscape:window-x="0"
     inkscape:window-y="27"
     inkscape:window-maximized="1"
     fit-margin-top="0"
     fit-margin-left="0"
     fit-margin-right="0"
     fit-margin-bottom="0" />
  <metadata
     id="metadata5">
    <rdf:RDF>
      <cc:Work
         rdf:about="">
        <dc:format>image/svg+xml</dc:format>
        <dc:type
           rdf:resource="http://purl.org/dc/dcmitype/StillImage" />
        <dc:title></dc:title>
      </cc:Work>
    </rdf:RDF>
  </metadata>
  <g
     inkscape:label="Layer 1"
     inkscape:groupmode="layer"
     id="layer1"
     transform="translate(-45.849995,-50.993401)">
    <g
       id="g1285"
       clip-path="url(#clipPath1289)"
       transform="matrix(0.35277777,0,0,-0.35277777,-171.30633,-38.064556)" />
    <ellipse
       style="fill:#666666;fill-opacity:1;stroke:#000000;stroke-width:1;stroke-miterlimit:4;stroke-dasharray:none;stroke-opacity:1"
       id="path965"
       cx="104.31958"
       cy="105.94656"
       rx="57.969585"
       ry="54.453163" />
    <g
       id="g1534"
       transform="matrix(0.35277777,0,0,-0.35277777,21.80813,201.26392)">
      <g
         id="g1536"
         clip-path="url(#clipPath1540)">
        <g
           id="g1542"
           transform="translate(323.8818,480.1161)">
          <g
             id="g1619"
             clip-path="url(#clipPath1623)"
             transform="translate(-461.80026,-155.52712)">
            <g
               id="g1625"
               transform="translate(410.46338,50.844544)" />
          </g>
        </g>
      </g>
    </g>
    <path
       style="fill:#ffffff;stroke-width:0.174563"
       d="m 69.140892,135.03206 c -0.700439,-0.16997 -1.144605,-0.71751 -1.283538,-1.58223 -0.17531,-1.09118 -0.114753,-13.87288 0.06899,-14.55394 0.311075,-1.15327 0.634018,-1.30342 2.947167,-1.37019 l 2.053973,-0.0592 0.847471,0.90076 c 0.797033,0.84716 0.898815,0.90075 1.710133,0.90075 0.709874,0 0.962169,0.0915 1.42444,0.51656 l 0.561755,0.51653 0.05821,1.96357 0.05831,1.96355 h 3.648557 3.648558 l 0.222696,-0.63425 c 0.331694,-0.94467 1.509334,-2.0974 2.512646,-2.45951 0.47305,-0.17073 1.066259,-0.38833 1.318273,-0.48356 0.310745,-0.11746 0.568403,-0.43903 0.800689,-0.99945 0.532796,-1.28532 3.12749,-8.51664 3.12749,-8.71619 0,-0.0978 -0.187749,-0.47527 -0.417211,-0.83855 -0.547024,-0.86601 -0.821802,-1.98927 -0.762238,-3.11588 l 0.04815,-0.91047 -6.668804,-2.58845 c -3.667861,-1.42364 -6.869352,-2.69895 -7.11442,-2.83402 -0.381743,-0.2104 -2.579104,-3.059594 -7.673829,-9.950225 -0.801004,-1.08337 -1.149744,-1.709391 -1.149744,-2.063881 0,-0.424577 4.992538,-14.425037 5.231807,-14.671452 0.07028,-0.07235 73.655127,28.155488 74.215147,28.469638 0.56107,0.31475 -0.63489,0.3306 -6.97674,0.0925 -10.65631,-0.40016 -10.62453,-0.40006 -11.01367,-0.0392 -0.18514,0.17165 -0.58891,1.10543 -0.89729,2.07507 -0.96671,3.03971 -0.97141,3.04445 -4.8424,4.86627 -1.836,0.86407 -4.73151,2.25382 -6.43447,3.08833 -2.89984,1.42103 -3.17874,1.52151 -4.396,1.58376 -1.26517,0.0647 -1.3817,0.0336 -4.38638,-1.16991 -4.05514,-1.62431 -9.24915,-3.58105 -9.5057,-3.58105 -0.11199,0 -0.203585,0.0794 -0.203585,0.17665 0,0.47502 -1.374881,1.6924 -2.519548,2.23095 l -1.229444,0.57844 -1.027418,2.71429 c -0.565077,1.49287 -1.361719,3.66259 -1.770288,4.8216 l -0.742889,2.10728 0.371892,1.08141 c 0.556567,1.61846 0.628667,2.40703 0.319549,3.49487 -0.913297,3.21405 -4.733748,4.22486 -7.2769,1.92528 l -0.586167,-0.53002 H 81.516707 77.5753 l 0.01426,1.5633 c 0.01336,1.45184 -0.209809,2.67841 -0.573487,3.15276 -0.08385,0.10936 -0.601232,0.36729 -1.149842,0.5733 -0.548609,0.206 -1.534308,0.73268 -2.190432,1.17038 -1.169057,0.77987 -1.220501,0.79553 -2.569076,0.78147 -0.756864,-0.008 -1.641454,-0.0788 -1.965764,-0.15742 z m 56.598948,-31.20264 0.38576,-0.55793 -0.54878,-0.50497 c -0.30184,-0.27774 -0.62228,-0.50497 -0.7121,-0.50497 -0.0898,0 -0.44664,0.25618 -0.79292,0.5693 l -0.6296,0.5693 0.57411,0.49359 c 0.75625,0.6502 1.24203,0.63206 1.72353,-0.0643 z m -2.38058,14.39152 c -4.18482,-1.61638 -7.58547,-3.01493 -7.55701,-3.10785 0.0579,-0.18861 4.94177,-2.56758 8.61012,-4.19392 1.31405,-0.58258 2.75439,-1.24982 3.20078,-1.48277 1.17313,-0.61221 2.28883,-1.96596 2.65484,-3.22126 0.16527,-0.56685 0.37328,-1.27799 0.46224,-1.58032 0.0889,-0.30231 0.34768,-0.72956 0.57493,-0.94943 0.40666,-0.39345 0.45805,-0.39771 3.2633,-0.27027 1.56757,0.0712 2.85012,0.18439 2.85012,0.25153 0,0.0671 -0.18834,0.61701 -0.41855,1.22197 l -0.41856,1.09992 1.03523,0.53817 c 0.58546,0.30436 1.0023,0.62998 0.95945,0.74946 -0.78538,2.18958 -3.28907,9.08145 -3.31178,9.11634 -0.0171,0.0261 -0.50898,-0.10566 -1.0932,-0.29293 l -1.06224,-0.34046 -0.22358,0.55864 c -0.12295,0.30726 -0.55962,1.47539 -0.97031,2.59587 -0.41068,1.12047 -0.79178,2.08424 -0.84686,2.14173 -0.0551,0.0575 -3.52412,-1.21801 -7.70892,-2.83442 z m 13.87514,0.73698 c -0.62943,-0.32834 -0.95096,-0.61022 -0.98618,-0.86457 -0.0685,-0.49358 3.84674,-11.21751 4.24804,-11.63588 0.29772,-0.31037 0.348,-0.30819 1.46585,0.0637 1.54756,0.51489 1.68058,0.81021 1.09214,2.42438 -2.93807,8.05953 -3.64738,9.92486 -3.87461,10.18947 -0.37154,0.43264 -0.86183,0.38798 -1.94524,-0.17714 z"
       id="path1509" />
  </g>
</svg>
