<?xml version="1.0" encoding="UTF-8" standalone="no"?>
<svg
   xmlns:dc="http://purl.org/dc/elements/1.1/"
   xmlns:cc="http://creativecommons.org/ns#"
   xmlns:rdf="http://www.w3.org/1999/02/22-rdf-syntax-ns#"
   xmlns:svg="http://www.w3.org/2000/svg"
   xmlns="http://www.w3.org/2000/svg"
   xmlns:sodipodi="http://sodipodi.sourceforge.net/DTD/sodipodi-0.dtd"
   xmlns:inkscape="http://www.inkscape.org/namespaces/inkscape"
   width="116.93917mm"
   height="109.90633mm"
   viewBox="0 0 116.93917 109.90633"
   version="1.1"
   id="svg8"
   inkscape:version="1.0.2 (e86c870879, 2021-01-15)"
   sodipodi:docname="euroibex_icon.svg">
  <defs
     id="defs2">
    <clipPath
       clipPathUnits="userSpaceOnUse"
       id="clipPath867">
      <path
         d="M 0,850.39 H 1598.74 V 0 H 0 Z"
         id="path865" />
    </clipPath>
    <clipPath
       clipPathUnits="userSpaceOnUse"
       id="clipPath1025">
      <path
         d="M 0,850.39 H 1598.74 V 0 H 0 Z"
         id="path1023" />
    </clipPath>
    <clipPath
       clipPathUnits="userSpaceOnUse"
       id="clipPath1041">
      <path
         d="M 0,850.39 H 1598.74 V 0 H 0 Z"
         id="path1039" />
    </clipPath>
    <clipPath
       clipPathUnits="userSpaceOnUse"
       id="clipPath1164">
      <path
         d="M 0,850.39 H 1598.74 V 0 H 0 Z"
         id="path1162" />
    </clipPath>
    <clipPath
       clipPathUnits="userSpaceOnUse"
       id="clipPath1180">
      <path
         d="M 0,850.39 H 1598.74 V 0 H 0 Z"
         id="path1178" />
    </clipPath>
    <clipPath
       clipPathUnits="userSpaceOnUse"
       id="clipPath1289">
      <path
         d="M 0,379.485 H 1456.056 V 0 H 0 Z"
         id="path1287" />
    </clipPath>
  </defs>
  <sodipodi:namedview
     id="base"
     pagecolor="#ffffff"
     bordercolor="#666666"
     borderopacity="1.0"
     inkscape:pageopacity="0.0"
     inkscape:pageshadow="2"
     inkscape:zoom="0.35"
     inkscape:cx="226.70868"
     inkscape:cy="367.26904"
     inkscape:document-units="mm"
     inkscape:current-layer="layer1"
     inkscape:document-rotation="0"
     showgrid="false"
     inkscape:window-width="1920"
     inkscape:window-height="1016"
     inkscape:window-x="0"
     inkscape:window-y="27"
     inkscape:window-maximized="1"
     fit-margin-top="0"
     fit-margin-left="0"
     fit-margin-right="0"
     fit-margin-bottom="0" />
  <metadata
     id="metadata5">
    <rdf:RDF>
      <cc:Work
         rdf:about="">
        <dc:format>image/svg+xml</dc:format>
        <dc:type
           rdf:resource="http://purl.org/dc/dcmitype/StillImage" />
        <dc:title></dc:title>
      </cc:Work>
    </rdf:RDF>
  </metadata>
  <g
     inkscape:label="Layer 1"
     inkscape:groupmode="layer"
     id="layer1"
     transform="translate(-45.849995,-50.993401)">
    <g
       id="g1285"
       clip-path="url(#clipPath1289)"
       transform="matrix(0.35277777,0,0,-0.35277777,-171.30633,-38.064556)" />
    <ellipse
       style="fill:#6c585b;fill-opacity:1;stroke:#000000;stroke-width:1;stroke-miterlimit:4;stroke-dasharray:none;stroke-opacity:1"
       id="path965"
       cx="104.31958"
       cy="105.94656"
       rx="57.969585"
       ry="54.453163" />
    <g
       id="g1329"
       transform="matrix(0.35277777,0,0,-0.35277777,113.20217,62.21195)">
      <path
         d="m 0,0 c -4.612,-3.51 -8.068,-9.522 -8.97,-15.469 -0.456,-3.026 -1.068,-6.617 0.042,-6.918 0.967,-0.263 2.365,4.301 4.179,7.113 3.253,5.045 6.068,9.788 11.242,11.665 0.059,0.021 0.14,0.045 0.209,0.069 C 4.564,-2.191 2.32,-1.003 0,0 m -11.614,17.39 c -1.15,-0.06 -2.501,-2.301 -2.501,-2.301 0,0 -4.078,2.623 -5.69,2.504 -1.612,-0.119 -2.107,-1.907 -2.107,-1.907 0,0 -7.292,2.576 -7.952,1.406 -0.663,-1.17 -0.722,-2.377 -0.722,-2.377 0,0 -5.746,1.299 -6.209,0.12 -0.459,-1.182 0.051,-3.018 0.051,-3.018 0,0 -4.839,-0.352 -4.881,-1.152 -0.039,-0.8 -0.516,-2.379 -0.516,-2.379 0,0 -5.486,-1.331 -5.137,-2.352 0.349,-1.021 0.46,-2.836 0.46,-2.836 0,0 -1.976,-3.307 -2.128,-6.307 -0.15,-3.002 0.742,-5.254 1.501,-6.095 0.761,-0.842 1.937,-1.304 1.937,-1.304 -0.782,1.426 -0.042,3.161 0.776,6.083 2.543,8.265 9.6,8.603 16.922,10.217 11.459,2.531 25.201,-0.224 34.78,-6.083 15.96,-9.773 27.013,-28.518 25.498,-47.264 -0.448,-0.185 -0.911,-0.388 -1.386,-0.603 -2.34,4.353 -4.352,10.558 -5.79,12.113 -0.663,0.716 -1.341,1.006 -1.991,0.991 -2.328,-0.045 -4.346,-3.958 -4.469,-6.181 -0.233,-4.204 2.221,-11.343 3.353,-12.803 0.023,-0.036 0.059,-0.075 0.086,-0.108 -0.695,-0.686 -1.314,-1.426 -1.809,-2.217 -4.146,-6.612 -8.394,-15.233 -9.827,-19.772 -1.436,-4.543 -3.871,-9.036 -5.193,-11.376 -0.255,-0.451 -0.585,-0.892 -0.953,-1.322 -0.002,-0.006 -0.008,-0.019 -0.014,-0.022 -10.531,-8.796 -25.363,-18.082 -45.912,-19.354 -16.411,-1.015 -37.867,-10.28 -37.867,-10.28 0,0 -10.975,-6.62 -13.425,-10.952 -3.616,-6.378 0.931,-7.543 0.931,-7.543 0,0 -0.105,-5.602 -0.991,-8.363 -0.89,-2.762 -8.639,-28.229 -9.734,-35.097 -1.096,-6.865 -1.054,-6.113 -3.678,-9.91 -2.627,-3.796 -14.53,-17.234 -14.644,-19.477 -0.11,-2.239 1.281,-21.929 1.15,-24.542 -0.132,-2.611 1.027,-4.725 2.295,-5.54 0.725,-0.463 1.209,-2.671 1.502,-4.507 l 11.724,-0.594 0.197,3.884 c -0.549,2.799 -5.711,6.692 -5.916,9.775 -0.214,3.194 -1.955,10.781 -0.236,15.184 1.719,4.404 13.555,20.269 13.555,20.269 10.48,5.745 20.856,12.518 26.972,22.028 l 1.11,0.314 c 0,0 -4.708,-21.179 -6.257,-25.967 -1.551,-4.784 0.302,-5.808 0.72,-8.638 0.421,-2.826 2.238,-18.107 2.227,-22.035 -0.009,-3.928 -1.537,-11.9 0.868,-12.396 1.624,-0.334 1.588,-1.51 1.603,-2.6 l 10.501,-0.531 0.164,3.257 c -1.581,3.602 -5.256,9.796 -5.372,10.384 -0.15,0.754 2.847,22.074 2.895,23.005 0.044,0.934 0.227,4.934 3.215,8.525 2.988,3.591 13.862,29.133 13.862,29.133 l 24.766,1.45 c 0,0 1.895,-3.271 2.668,-6.492 0.774,-3.217 2.495,-11.667 2.427,-16.715 -0.029,-2.431 -1.797,-18.075 -1.316,-22.533 0.626,-5.831 1.893,-13.833 -0.313,-21.197 -0.875,-2.916 1.793,-4.682 2.826,-6.811 l 11.277,-0.571 0.024,0.445 c -0.17,0.917 -0.376,2.171 -0.558,3.669 -0.338,2.782 -3.114,3.504 -3.338,6.892 -0.218,3.256 0.332,10.137 0.058,11.504 -0.577,2.907 -0.487,2.324 0.933,4.862 2.565,4.573 0.567,12.307 0.448,15.014 -0.063,6.633 0.958,21.877 2.985,31.4 0,0 5.027,-24.707 5.928,-29.056 0.905,-4.35 -1.955,-32.265 -0.949,-34.56 1.009,-2.296 3.072,-2.029 4.156,-2.833 0.712,-0.527 0.903,-3.391 1.255,-5.623 l 13.12,-0.663 0.178,3.573 c -0.047,0.839 -0.097,1.669 -0.163,2.362 -0.24,2.632 -7.49,7.306 -7.49,7.306 0,0 -2.483,9.188 -2.361,11.615 0.039,0.752 0.379,1.4 2.256,7.811 1.804,6.15 0.789,10.982 0.744,15.328 -0.122,12.14 0.4,34.927 0.925,36.004 l 2.386,2.69 c 2.378,2.686 8.784,22.112 8.784,22.112 0,0 1.206,1.803 5.967,7.173 1.486,1.677 2.65,3.901 3.552,6.16 0.009,-0.003 0.099,-0.05 0.099,-0.05 l 11.957,33.44 c 0,0 5.376,-8.286 9.382,-6.892 1.006,-1.018 1.973,-3.311 2.399,-2.353 1.756,3.926 1.356,6.768 1.281,8.272 0,0 6.008,-2.8 8.871,-1.74 2.862,1.06 2.364,3.098 2.364,3.098 0,0 4.256,0.982 4.568,3.173 0.31,2.191 -0.472,2.435 -0.472,2.435 0,0 1.68,1.511 -3.021,7.768 -4.698,6.256 -11.531,14.029 -12.307,18.482 -0.319,1.821 -0.594,3.528 -0.82,5.003 -0.326,2.131 -0.541,3.69 -0.541,3.69 l -0.776,0.641 c 0,0 1.988,3.516 1.498,5.746 -0.489,2.233 -1.254,3.072 -1.254,3.072 0,0 0.568,7.193 -0.432,7.244 l -1,0.051 c 0,0 -0.048,7.029 -0.848,7.071 l -1.005,0.051 c 0,0 -0.783,4.442 -1.565,4.883 -0.779,0.442 -0.764,0.642 -0.764,0.642 0,0 -0.776,4.46 -1.755,4.91 -0.982,0.451 -2.182,0.51 -2.182,0.51 0,0 -1.098,6.072 -2.102,6.123 l -2.6,0.131 c 0,0 -2.345,5.135 -3.557,4.994 -1.212,-0.14 -1.812,-0.105 -1.812,-0.105 0,0 -2.37,4.731 -4.194,4.424 C 34.7,3.196 34.27,2.617 34.27,2.617 c 0,0 -4.605,4.048 -5.659,3.096 C 27.56,4.764 27.36,4.776 27.36,4.776 c 0,0 -3.003,2.453 -4.928,2.534 -0.2,0.009 -0.394,-0.003 -0.567,-0.051 -0.376,-0.104 -0.681,-0.233 -0.934,-0.367 1.588,-0.525 2.934,-1.95 3.582,-3.445 -0.055,-0.934 0.913,-0.465 1.477,-0.653 2.907,-0.358 4.549,-3.158 5.188,-5.75 0.892,0.111 1.836,0.03 2.635,-0.397 2.914,-1.975 3.794,-5.694 4.804,-8.868 -0.195,-0.662 0.611,-0.534 1.038,-0.672 2.86,-1.068 3.83,-4.366 4.319,-7.112 2.714,-1.358 4.024,-4.72 3.349,-7.627 2.084,-1.438 2.701,-4.194 2.516,-6.593 -0.483,-1.009 0.979,-1.207 1.269,-1.974 1.14,-2.808 0.803,-5.755 0.299,-8.68 -0.932,0.28 -1.83,0.465 -2.734,0.562 0.367,2.548 0.692,5.742 0.146,6.474 -0.94,1.251 -1.928,1.504 -1.928,1.504 0,0 0.647,4.985 -0.705,6.057 -1.349,1.071 -1.937,1.301 -1.937,1.301 0,0 0.994,3.758 -0.134,5.221 -1.132,1.463 -2.529,1.731 -2.529,1.731 0,0 -1.089,6.077 -2.481,6.349 -1.39,0.269 -2.566,0.925 -2.566,0.925 0,0 -2.546,8.934 -4.146,9.015 -1.601,0.08 -3.239,-0.439 -3.239,-0.439 0,0 -1.113,5.826 -3.105,6.128 -1.99,0.301 -2.906,0.024 -2.906,0.024 0,0 -1.899,4.304 -3.099,4.367 -1.203,0.059 -2.242,-0.693 -2.242,-0.693 0,0 -4.701,5.645 -5.701,5.695 C 11.102,9.394 9.227,8.08 9.227,8.08 c 0,0 -1.619,3.698 -3.588,4.4 -1.971,0.702 -3.263,-1.036 -3.263,-1.036 0,0 -2.483,2.943 -4.262,3.432 -1.782,0.493 -3.863,-1.008 -3.863,-1.008 0,0 -4.447,3.232 -5.638,3.492 -0.036,0.009 -0.081,0.021 -0.116,0.024 -0.037,0.003 -0.072,0.006 -0.111,0.003 z"
         style="fill:#ffffff;fill-opacity:1;fill-rule:nonzero;stroke:none"
         id="path1327" />
    </g>
  </g>
</svg>
