<?xml version="1.0" encoding="UTF-8" standalone="no"?>
<svg
   xmlns:dc="http://purl.org/dc/elements/1.1/"
   xmlns:cc="http://creativecommons.org/ns#"
   xmlns:rdf="http://www.w3.org/1999/02/22-rdf-syntax-ns#"
   xmlns:svg="http://www.w3.org/2000/svg"
   xmlns="http://www.w3.org/2000/svg"
   xmlns:sodipodi="http://sodipodi.sourceforge.net/DTD/sodipodi-0.dtd"
   xmlns:inkscape="http://www.inkscape.org/namespaces/inkscape"
   width="116.93917mm"
   height="109.90633mm"
   viewBox="0 0 116.93917 109.90633"
   version="1.1"
   id="svg8"
   inkscape:version="1.0.2 (e86c870879, 2021-01-15)"
   sodipodi:docname="eurocats_icon.svg">
  <defs
     id="defs2">
    <clipPath
       clipPathUnits="userSpaceOnUse"
       id="clipPath867">
      <path
         d="M 0,850.39 H 1598.74 V 0 H 0 Z"
         id="path865" />
    </clipPath>
    <clipPath
       clipPathUnits="userSpaceOnUse"
       id="clipPath1025">
      <path
         d="M 0,850.39 H 1598.74 V 0 H 0 Z"
         id="path1023" />
    </clipPath>
    <clipPath
       clipPathUnits="userSpaceOnUse"
       id="clipPath1041">
      <path
         d="M 0,850.39 H 1598.74 V 0 H 0 Z"
         id="path1039" />
    </clipPath>
    <clipPath
       clipPathUnits="userSpaceOnUse"
       id="clipPath1164">
      <path
         d="M 0,850.39 H 1598.74 V 0 H 0 Z"
         id="path1162" />
    </clipPath>
    <clipPath
       clipPathUnits="userSpaceOnUse"
       id="clipPath1180">
      <path
         d="M 0,850.39 H 1598.74 V 0 H 0 Z"
         id="path1178" />
    </clipPath>
    <clipPath
       clipPathUnits="userSpaceOnUse"
       id="clipPath1289">
      <path
         d="M 0,379.485 H 1456.056 V 0 H 0 Z"
         id="path1287" />
    </clipPath>
    <clipPath
       clipPathUnits="userSpaceOnUse"
       id="clipPath1398">
      <path
         d="M 0,850.39 H 1598.74 V 0 H 0 Z"
         id="path1396" />
    </clipPath>
    <clipPath
       clipPathUnits="userSpaceOnUse"
       id="clipPath1516">
      <path
         d="M 0,850.39 H 1598.74 V 0 H 0 Z"
         id="path1514" />
    </clipPath>
    <clipPath
       clipPathUnits="userSpaceOnUse"
       id="clipPath1540">
      <path
         d="M 0,850.39 H 1598.74 V 0 H 0 Z"
         id="path1538" />
    </clipPath>
    <clipPath
       clipPathUnits="userSpaceOnUse"
       id="clipPath1623">
      <path
         d="M 0,850.39 H 1598.74 V 0 H 0 Z"
         id="path1621" />
    </clipPath>
  </defs>
  <sodipodi:namedview
     id="base"
     pagecolor="#ffffff"
     bordercolor="#666666"
     borderopacity="1.0"
     inkscape:pageopacity="0.0"
     inkscape:pageshadow="2"
     inkscape:zoom="0.35"
     inkscape:cx="318.51249"
     inkscape:cy="435.79864"
     inkscape:document-units="mm"
     inkscape:current-layer="layer1"
     inkscape:document-rotation="0"
     showgrid="false"
     inkscape:window-width="1533"
     inkscape:window-height="1016"
     inkscape:window-x="50"
     inkscape:window-y="27"
     inkscape:window-maximized="0"
     fit-margin-top="0"
     fit-margin-left="0"
     fit-margin-right="0"
     fit-margin-bottom="0" />
  <metadata
     id="metadata5">
    <rdf:RDF>
      <cc:Work
         rdf:about="">
        <dc:format>image/svg+xml</dc:format>
        <dc:type
           rdf:resource="http://purl.org/dc/dcmitype/StillImage" />
        <dc:title></dc:title>
      </cc:Work>
    </rdf:RDF>
  </metadata>
  <g
     inkscape:label="Layer 1"
     inkscape:groupmode="layer"
     id="layer1"
     transform="translate(-45.849995,-50.993401)">
    <g
       id="g1285"
       clip-path="url(#clipPath1289)"
       transform="matrix(0.35277777,0,0,-0.35277777,-171.30633,-38.064556)" />
    <ellipse
       style="fill:#8a381b;fill-opacity:1;stroke:#000000;stroke-width:1;stroke-miterlimit:4;stroke-dasharray:none;stroke-opacity:1"
       id="path965"
       cx="104.31958"
       cy="105.94656"
       rx="57.969585"
       ry="54.453163" />
    <g
       id="g1534"
       transform="matrix(0.35277777,0,0,-0.35277777,21.80813,201.26392)">
      <g
         id="g1536"
         clip-path="url(#clipPath1540)">
        <g
           id="g1542"
           transform="translate(323.8818,480.1161)">
          <g
             id="g1619"
             clip-path="url(#clipPath1623)"
             transform="translate(-461.80026,-155.52712)">
            <g
               id="g1625"
               transform="translate(410.46338,50.844544)" />
          </g>
        </g>
      </g>
    </g>
    <path
       d="m 122.05451,121.25385 c 0.0653,0.30092 0.0748,0.32561 0.0822,0.50588 0.005,0.11607 -0.0783,0.86889 -0.13793,0.66252 -0.0504,-0.17498 -0.003,-0.38065 0.009,-0.59549 0.006,-0.10689 0.004,-0.57538 0.0466,-0.57291 M 77.337457,74.086048 c -0.117475,-0.02999 -0.309033,0.02046 -0.531636,0.118886 -0.391936,0.173919 -0.880886,0.510822 -1.27247,0.859014 -0.297039,0.264583 -0.534811,0.541161 -0.620536,0.760236 -0.167569,0.428978 -0.46108,0.548922 -0.522111,1.169458 -0.04727,0.481542 -0.220839,0.929217 -0.151341,1.52647 0.05715,0.490008 -0.171098,1.03364 -0.0074,1.601612 0.14217,0.49142 0.374297,0.886178 0.621242,1.434395 0.116769,0.258586 0.212019,0.516819 0.414161,0.790222 0.173214,0.233539 0.440267,0.669572 0.569736,0.906286 0.256469,0.470253 0.546806,0.765528 0.846314,1.258358 0.121708,0.200378 0.231069,0.407106 0.343253,0.611364 0.147814,0.268111 0.666044,0.653345 0.84843,0.92075 0.311856,0.456847 1.13665,1.139825 1.305278,1.39065 0.307975,0.457553 0.390878,0.506942 0.70873,0.969433 0.314325,0.457906 0.617009,0.925336 0.93345,1.3843 0.3175,0.45967 0.672395,0.970492 0.985309,1.427339 0.317853,0.464609 0.619125,0.845608 0.924629,1.302808 0.31503,0.472017 0.597605,0.962731 0.891116,1.4224 0.189795,0.297392 0.381,0.559506 0.560211,0.825148 0.112184,0.165452 0.402167,0.388055 0.507295,0.566208 0.07549,0.127706 0.142169,0.540456 0.363008,0.989542 0.111478,0.226483 0.154517,0.420158 0.289278,0.621594 0.644525,0.964494 0.963789,2.155825 0.811741,2.373842 -0.186972,0.267758 -0.242005,1.151817 -0.440619,1.402647 -0.124883,0.15734 -0.416983,0.42721 -0.450144,0.59337 -0.100895,0.50624 -0.460728,0.72214 -0.693561,1.10737 -0.129117,0.21413 -0.226837,0.37818 -0.325614,0.53446 -0.106892,0.16933 -0.448028,0.84278 -0.502709,1.0354 -0.110419,0.38911 -0.249414,0.768 -0.329847,0.88406 -0.174978,0.25224 -0.255058,0.59302 -0.333375,0.92393 -0.06985,0.29386 -0.144286,0.58561 -0.273403,0.8068 -0.136877,0.23424 -0.204962,0.46073 -0.332315,0.65475 -0.172508,0.26247 -0.242005,0.49742 -0.32385,0.7493 -0.117122,0.36054 -0.325261,0.647 -0.496005,0.94227 -0.09878,0.17004 -0.188736,0.34079 -0.244475,0.52494 -0.0889,0.29633 -0.127,0.54116 -0.150283,0.77293 -0.02258,0.22825 -0.02399,0.44415 -0.0381,0.6978 -0.01058,0.19403 -0.05468,0.50271 -0.189795,0.75706 -0.117828,0.22154 -0.150636,0.61877 -0.344664,0.883 -0.129116,0.17604 -0.41663,0.43427 -0.573264,0.6283 -0.174272,0.21519 -0.419805,0.53693 -0.621241,0.77329 -0.2032,0.23812 -0.452614,0.52705 -0.637117,0.81315 -0.106186,0.16475 -0.377472,0.32914 -0.511528,0.48366 -0.158044,0.18309 -0.34925,0.42192 -0.492477,0.63253 -0.157692,0.23142 -0.40005,0.0977 -0.582789,0.31785 -0.154517,0.18662 -0.347134,0.3429 -0.55245,0.49495 -0.233539,0.17286 -0.451203,0.36442 -0.650523,0.57009 -0.157691,0.16228 -0.301977,0.35419 -0.449438,0.58102 -0.144639,0.22261 -0.29457,0.48084 -0.44697,0.78317 -0.09243,0.1845 -0.180269,0.40957 -0.26423,0.64523 -0.130881,0.36689 -0.248356,0.76165 -0.407459,1.04105 -0.117828,0.20743 -0.186266,0.46108 -0.25153,0.65969 -0.137936,0.41945 -0.140053,0.52423 -0.244122,0.76694 -0.200378,0.46884 -0.271992,0.80998 -0.420512,1.28305 -0.08749,0.27834 -0.167569,0.52529 -0.283633,0.75177 -0.08996,0.17569 -0.2286,0.32914 -0.271992,0.53693 -0.05644,0.27129 -0.221544,0.59478 -0.316441,0.85796 -0.08714,0.24165 -0.0949,0.41451 -0.116064,0.63993 -0.02399,0.25824 -0.07444,0.51294 -0.108303,0.74789 -0.03916,0.27094 -0.06138,0.52811 -0.04198,0.76518 0.02963,0.3623 0.158044,0.53693 0.255411,0.74083 0.07761,0.16299 0.110066,0.36266 0.2159,0.48295 0.0829,0.0949 0.171097,0.40147 0.317147,0.59655 0.11818,0.15769 0.265289,0.20673 0.534105,0.32562 0.23107,0.1023 0.597253,0.16933 0.935214,0.13229 0.30727,-0.0339 0.563034,-0.0819 0.800806,-0.11748 0.63888,-0.097 1.025525,-0.14922 1.251655,-0.37006 0.249767,-0.24412 0.270934,-0.30304 0.146403,-0.81915 -0.0441,-0.18274 -0.06209,-0.36971 -0.08326,-0.54434 -0.03246,-0.26564 -0.319264,-0.56762 -0.651228,-0.7881 -0.275167,-0.18239 -0.595842,0.0833 -0.543984,-0.39335 0.02716,-0.2473 -0.08819,-0.54222 -0.02117,-0.83608 0.07549,-0.33197 0.292805,-0.65723 0.426508,-0.90558 0.422275,-0.78317 0.357364,-0.84738 0.518583,-1.34444 0.07197,-0.2226 0.218723,-0.72214 0.506237,-1.12995 0.172155,-0.24447 0.34925,-0.62194 0.543277,-0.81879 0.199673,-0.2025 0.403225,-0.19439 0.650523,-0.32738 0.11183,-0.06 0.240947,-0.11677 0.399697,-0.16651 0.121708,-0.0381 0.262466,-0.1203 0.415925,-0.21943 0.115711,-0.0748 0.239183,-0.15452 0.349602,-0.23672 0.247298,-0.18344 0.454731,-0.36794 0.520348,-0.40216 0.41275,-0.21625 0.458611,-0.47237 0.918986,-0.55527 0.485775,-0.0875 0.764116,-0.37183 1.185333,-0.50024 0.31997,-0.0974 0.534458,-0.0868 0.825498,-0.0759 0.17145,0.006 0.480131,0.0903 0.567267,-0.036 0.143228,-0.20779 0.433211,-0.22437 0.728486,-0.26988 0.316442,-0.0487 0.633589,-0.12629 0.823736,-0.29104 0.168628,-0.14605 0.528108,-0.27869 0.696383,-0.41945 0.210962,-0.17639 0.392642,-0.27094 0.602898,-0.43815 0.115005,-0.091 0.376061,-0.30163 0.655108,-0.40817 0.192969,-0.0737 0.386644,-0.0346 0.558447,-0.11747 0.219781,-0.10619 0.375709,-0.28364 0.519642,-0.38876 0.144639,-0.10513 0.275167,-0.13794 0.375003,-0.20814 0.236008,-0.16616 0.350661,-0.25471 0.500239,-0.28222 0.116063,-0.0215 0.270227,0.0205 0.448733,-0.0829 0.167217,-0.0974 0.270228,-0.14217 0.35948,-0.16898 0.150284,-0.0452 0.248709,-0.0349 0.519642,-0.1464 0.153106,-0.0632 0.275872,-0.18803 0.375708,-0.22154 0.216606,-0.073 0.363714,-0.0191 0.676981,-0.0706 0.498475,-0.0825 -0.683331,0.84032 -0.835025,1.71767 -0.08079,0.46708 -0.294922,0.51083 -0.437797,1.10702 -0.124531,0.51964 -0.01023,0.68474 -0.121709,1.2319 -0.113947,0.56092 0.06315,1.27212 0.02293,1.79176 -0.04868,0.62301 0.693208,1.04916 0.846314,1.50072 0.186266,0.54962 0.68968,0.89182 1.003653,1.33385 0.328083,0.46249 0.7112,0.75988 1.137002,1.11266 0.433564,0.35913 1.082323,0.51894 1.573036,0.77329 0.505884,0.26211 0.924278,0.52458 1.443214,0.68509 0.254,0.0787 0.471664,0.33726 0.760236,0.37853 0.350309,0.0501 0.705556,0.0854 0.989542,0.12171 0.324908,0.0416 0.359833,0.33408 0.730956,0.41734 0.349955,0.078 0.853016,0.006 1.078088,-0.0219 0.250473,-0.0311 0.437092,-0.10654 0.678749,-0.12312 0.35666,-0.0243 0.42615,-0.30092 0.60572,-0.46567 0.18803,-0.17216 0.35842,-0.58984 0.27622,-0.86007 -0.0568,-0.18662 -0.32632,-0.4124 -0.63641,-0.66781 -0.2794,-0.22966 -0.404284,-0.33479 -0.990601,-0.59267 -0.53728,-0.23636 -0.746478,0.0755 -1.251303,-0.0152 -0.352072,-0.0635 -0.740127,-0.42121 -0.941211,-0.50941 -0.235655,-0.10371 -0.460727,-0.27269 -0.675216,-0.45473 -0.21202,-0.17991 -0.436034,-0.34043 -0.647348,-0.46637 -0.267758,-0.1591 -0.398638,-0.49001 -0.664633,-0.64206 -0.269169,-0.15451 -0.42545,-0.37958 -0.54998,-0.52846 -0.173567,-0.20814 -0.1778,-0.56091 -0.107245,-0.74647 0.07408,-0.19439 0.228247,-0.22296 0.267759,-0.4565 0.04551,-0.26987 0.08996,-0.43497 0.246944,-0.57855 0.09207,-0.0843 0.265642,-0.11924 0.378883,-0.27552 0.111125,-0.15382 0.218722,-0.42369 0.430742,-0.4879 0.103717,-0.0314 0.151342,-0.20531 0.218017,-0.29774 0.123825,-0.1711 0.230011,-0.30727 0.360891,-0.4378 0.151695,-0.15204 0.307622,-0.3175 0.457553,-0.48648 0.08361,-0.0945 0.161572,-0.19261 0.244475,-0.28293 0.107597,-0.11747 0.221897,-0.2353 0.327731,-0.33196 0.245533,-0.22437 0.386997,-0.47131 0.509763,-0.69885 0.08749,-0.16263 0.172156,-0.31327 0.265995,-0.42969 0.05115,-0.0635 0.103717,-0.1658 0.162983,-0.27375 0.118886,-0.21661 0.255764,-0.46637 0.421922,-0.56903 0.221192,-0.13723 0.34537,-0.11113 0.631473,-0.22119 0.233539,-0.09 0.497064,-0.18063 0.767996,-0.254 0.26212,-0.0713 0.53905,-0.1263 0.83115,-0.1831 0.2868,-0.0561 0.51152,-0.19438 0.84772,-0.236 0.23954,-0.0296 0.53058,0.0152 0.7814,-0.0113 0.2974,-0.0307 0.90629,0.12523 1.27142,0.13723 0.28292,0.01 0.32561,-0.11748 0.57255,-0.12982 0.32632,-0.0162 0.47167,-0.0706 0.80857,-0.009 0.22084,0.0399 0.43462,0.0783 0.65546,0.0759 0.21237,-0.002 0.51717,-3.5e-4 0.75001,0.0684 0.3683,0.1083 0.65616,0.0617 0.99271,0.0681 0.13335,0.002 0.32209,0.18944 0.55386,0.20531 0.22578,0.0159 0.49918,-0.13899 0.65194,-0.0984 0.34572,0.0917 0.25999,-0.13053 0.54504,-0.11818 0.22966,0.01 0.4953,0.004 0.7373,0.054 0.35525,0.0727 0.48402,-0.0977 0.79869,-0.0776 0.25295,0.0166 0.5962,0.17639 0.8375,0.19438 0.31326,0.0233 0.67557,-0.18697 0.96485,-0.16228 0.2741,0.0233 0.5214,0.0293 0.8583,0.0607 0.41875,0.0388 0.6791,-0.004 0.94086,0.0247 0.24518,0.0268 0.62371,0.018 0.80716,0.0173 0.14499,-3.5e-4 0.24694,-0.12841 0.33478,-0.13441 0.20038,-0.0127 0.28575,0.10019 0.36583,0.11924 0.23566,0.0568 0.11572,-0.005 0.38136,0.29104 0.2667,0.29704 0.23036,0.48049 0.29774,0.58103 0.17357,0.25929 0.0875,0.59866 0.1584,0.78952 0.12841,0.34501 0.0561,0.29598 0.29951,0.96802 0.18944,0.52246 0.15663,0.56162 0.16016,0.89041 0.001,0.16616 0.11006,0.66781 0.14005,0.84631 0.0801,0.47978 0.0677,0.53552 0.20779,1.09855 0.12029,0.48296 0.23671,0.8629 0.28116,1.37266 0.0444,0.50553 0.3242,0.78317 0.37747,1.28235 0.0547,0.5147 0.35031,1.05727 0.4318,1.5427 0.036,0.21625 0.20426,0.74224 0.27164,1.01529 0.0949,0.38559 0.26035,0.70485 0.34149,0.97473 0.16863,0.56162 0.21555,0.72037 0.5401,1.12253 0.17569,0.21802 0.20003,0.53728 0.34043,0.66499 0.14535,0.13229 0.45368,0.19756 0.69709,0.29386 0.53975,0.21414 1.06821,0.0423 1.56916,0.11325 0.30868,0.0437 0.50976,-0.003 0.79481,-0.01 0.29809,-0.007 0.68086,0.0303 0.87982,-0.0864 0.16193,-0.0949 0.50377,-0.006 0.70732,-0.37818 0.12207,-0.2226 0.18204,-0.4632 0.11889,-0.69356 -0.0967,-0.35525 -0.74859,-0.75706 -1.17193,-0.96661 -0.56409,-0.2794 -0.63994,-0.0621 -1.07914,-0.20744 -0.23989,-0.0794 -0.40429,-0.46178 -0.50659,-0.57996 -0.0166,-0.0194 0.13793,-0.31503 0.41874,-0.75777 0.13441,-0.21202 0.34784,-0.40781 0.49248,-0.63253 0.15663,-0.24377 0.24342,-0.51188 0.2914,-0.64382 0.15733,-0.43497 0.41557,-1.14723 0.56268,-1.66546 0.12911,-0.45403 0.15628,-1.00577 0.085,-1.54341 -0.0639,-0.47907 -0.266,-0.72213 -0.37007,-1.11125 -0.11289,-0.42333 -0.1404,-0.73906 -0.54645,-1.32221 -0.2219,-0.31855 -0.78881,-0.82197 -0.72178,-1.31868 0.0631,-0.46673 0.41451,-0.96943 0.60536,-1.46121 0.17322,-0.44591 0.68686,-0.88159 0.93522,-1.33526 0.23459,-0.42827 0.61383,-0.84596 0.89111,-1.27035 0.27235,-0.41699 0.5581,-0.82903 0.84843,-1.23225 0.2974,-0.41275 0.59479,-0.81563 0.88759,-1.20333 0.31539,-0.41839 0.49354,-0.96767 0.774,-1.34408 0.33126,-0.44486 0.63394,-0.77047 0.8703,-1.13701 0.29951,-0.4646 0.60995,-0.80892 0.97684,-1.1176 0.40605,-0.34184 1.00365,-0.56656 1.46862,-0.75388 0.47413,-0.19085 0.96484,-0.30692 1.47461,-0.37677 0.50412,-0.0691 0.98001,-0.22366 1.49295,-0.21378 0.51647,0.01 0.84314,-0.24589 1.34338,-0.19544 0.53022,0.0529 1.2319,-0.11995 1.71344,-0.0674 0.17745,0.0191 0.51753,-0.008 0.70309,0.067 0.2353,0.096 0.60395,0.21554 0.90276,0.25047 0.52387,0.061 0.762,-0.11712 1.03681,-0.39688 0.12594,-0.12841 0.049,-0.31644 -0.0646,-0.40393 -0.0346,-0.0265 0.20814,-0.0459 0.41063,-0.13229 0.17004,-0.0727 0.3482,-0.2226 0.45368,-0.28575 0.1397,-0.0833 0.3242,-0.29386 0.46566,-0.42368 0.25753,-0.23637 0.58068,-0.57009 0.45403,-0.87207 -0.14993,-0.35666 0.15875,-0.0169 0.28293,-0.25365 0.0522,-0.0995 0.0377,-0.24095 -0.0374,-0.54081 -0.0804,-0.31961 -0.54892,-0.7239 -0.8001,-1.12112 -0.23107,-0.36548 -0.17992,-0.69004 -0.24518,-0.92852 -0.14393,-0.52881 -0.29951,-0.752471 -0.57997,-1.203321 -0.27552,-0.443089 -0.35277,-0.535164 -0.78563,-0.891469 -0.38524,-0.317147 -0.44133,-0.486481 -0.96979,-0.72637 -0.44944,-0.204258 -0.71473,-0.42298 -1.21214,-0.726369 -0.10442,-0.0635 -0.012,-0.732719 -0.32209,-1.241425 -0.25188,-0.412397 -0.25082,-0.825147 -0.50729,-0.857955 -0.29775,-0.03845 -0.88124,0.397933 -1.32821,0.59055 -0.0822,0.03528 -0.0385,-0.235303 -0.0917,-0.503414 -0.0504,-0.254353 -0.22649,-0.50412 -0.36195,-0.689328 -0.2787,-0.379589 -0.68298,-0.636764 -0.84103,-0.625122 -0.45085,0.03281 -0.72107,0.640291 -1.0488,1.031169 -0.37571,0.448381 -0.47731,1.246717 -0.67628,1.241425 -0.30586,-0.0078 -0.51929,0.01376 -1.00118,0.05468 -0.33585,0.02822 -0.76377,0.03422 -1.04034,0.06385 -0.53623,0.05786 -1.08091,0.06985 -1.56175,0.250473 -0.51823,0.195086 -0.91546,0.136525 -1.42275,0.164394 -0.50659,0.02752 -0.97261,0.103717 -1.50107,0.119239 -0.51083,0.01517 -0.99448,-0.03493 -1.51942,-0.02963 -0.51435,0.0053 -1.04175,0.0381 -1.56386,0.03528 -0.51682,-0.0028 -1.03611,0.138995 -1.5554,0.129823 -0.51929,-0.0095 -1.02305,0.347486 -1.53987,0.332669 -0.52176,-0.01482 -1.01353,-0.118886 -1.52718,-0.137936 -0.52493,-0.0194 -1.12642,-0.08079 -1.63653,-0.103364 -0.52882,-0.02364 -1.0287,0.02152 -1.53459,-0.0035 -0.5341,-0.02681 -1.02588,0.117828 -1.52647,0.09102 -0.54116,-0.02893 -1.20791,-0.133703 -1.70109,-0.160867 -0.5648,-0.03104 -1.01106,-0.07161 -1.57092,-0.07303 -0.5655,-0.0011 -1.09396,-0.05821 -1.65382,-0.03704 -0.56551,0.02117 -1.17052,-0.170745 -1.72967,-0.135467 -0.5648,0.03563 -1.26436,-0.195439 -1.82245,-0.154164 -0.5655,0.04198 -1.01424,-0.09807 -1.57198,-0.05962 -0.56656,0.03951 -1.17299,0.107597 -1.73073,0.133702 -0.56762,0.02716 -1.09996,0.02716 -1.657349,0.02999 -0.561269,0.0035 -1.074561,0.189088 -1.621013,0.09948 -0.553509,-0.09066 -0.927453,0.130528 -1.471437,0.04586 -0.557036,-0.08643 -0.840316,0.105481 -1.392766,0.13335 -0.359128,0.01799 -0.767645,0.05009 -1.242836,0.07973 -0.238125,0.01446 -0.589139,-0.04127 -0.769409,0.03845 -0.187677,0.0829 -1.221316,0.0014 -1.754011,-0.419806 -0.35313,-0.278694 -0.762705,-0.548922 -1.199091,-0.967669 -0.352072,-0.337609 -0.784931,-0.868892 -1.181806,-1.276703 -0.351366,-0.360892 -0.529519,-0.734131 -0.906639,-1.140531 -0.348897,-0.375708 -0.584905,-0.70873 -0.948266,-1.115483 -0.345723,-0.38735 -0.776464,-1.093964 -1.129242,-1.502833 -0.341842,-0.39617 -0.481189,-1.007534 -0.824089,-1.41852 -0.337608,-0.404989 -0.675922,-0.8128 -1.00965,-1.226961 -0.333022,-0.413455 -0.67063,-0.83573 -0.99448,-1.252714 -0.327729,-0.422627 -0.640643,-0.843491 -0.95391,-1.264002 -0.32138,-0.432859 -0.399697,-0.556684 -0.699911,-0.981075 -0.313972,-0.444148 -1.276703,-1.056923 -1.560689,-1.486253 -0.328789,-0.496711 -1.093258,-1.292225 -1.370894,-1.758245 -0.307622,-0.516113 -0.295275,-0.592666 -0.547158,-1.066447 -0.286103,-0.538691 -0.174625,-1.148293 -0.172509,-1.760009 0.0025,-0.626887 0.08361,-0.884414 0.130528,-1.392767 0.06244,-0.675922 0.344664,-1.025525 0.174625,-1.458031 -0.173214,-0.439561 0.05292,-0.559505 -0.483305,-1.251655 -0.02187,-0.02822 -0.05186,-0.04868 -0.09102,-0.05891"
       style="fill:#ffffff;fill-opacity:1;fill-rule:nonzero;stroke:none;stroke-width:0.352778"
       id="path1627" />
  </g>
</svg>
