<?xml version="1.0" encoding="UTF-8" standalone="no"?>
<svg
   xmlns:dc="http://purl.org/dc/elements/1.1/"
   xmlns:cc="http://creativecommons.org/ns#"
   xmlns:rdf="http://www.w3.org/1999/02/22-rdf-syntax-ns#"
   xmlns:svg="http://www.w3.org/2000/svg"
   xmlns="http://www.w3.org/2000/svg"
   xmlns:sodipodi="http://sodipodi.sourceforge.net/DTD/sodipodi-0.dtd"
   xmlns:inkscape="http://www.inkscape.org/namespaces/inkscape"
   width="116.93917mm"
   height="109.90633mm"
   viewBox="0 0 116.93917 109.90633"
   version="1.1"
   id="svg8"
   inkscape:version="1.0.2 (e86c870879, 2021-01-15)"
   sodipodi:docname="eurodeer_icon.svg">
  <defs
     id="defs2">
    <clipPath
       clipPathUnits="userSpaceOnUse"
       id="clipPath867">
      <path
         d="M 0,850.39 H 1598.74 V 0 H 0 Z"
         id="path865" />
    </clipPath>
  </defs>
  <sodipodi:namedview
     id="base"
     pagecolor="#ffffff"
     bordercolor="#666666"
     borderopacity="1.0"
     inkscape:pageopacity="0.0"
     inkscape:pageshadow="2"
     inkscape:zoom="0.35"
     inkscape:cx="226.70868"
     inkscape:cy="367.26904"
     inkscape:document-units="mm"
     inkscape:current-layer="layer1"
     inkscape:document-rotation="0"
     showgrid="false"
     inkscape:window-width="1920"
     inkscape:window-height="1016"
     inkscape:window-x="0"
     inkscape:window-y="27"
     inkscape:window-maximized="1"
     fit-margin-top="0"
     fit-margin-left="0"
     fit-margin-right="0"
     fit-margin-bottom="0" />
  <metadata
     id="metadata5">
    <rdf:RDF>
      <cc:Work
         rdf:about="">
        <dc:format>image/svg+xml</dc:format>
        <dc:type
           rdf:resource="http://purl.org/dc/dcmitype/StillImage" />
        <dc:title></dc:title>
      </cc:Work>
    </rdf:RDF>
  </metadata>
  <g
     inkscape:label="Layer 1"
     inkscape:groupmode="layer"
     id="layer1"
     transform="translate(-45.849995,-50.993401)">
    <ellipse
       style="fill:#ad6126;stroke:#000000;stroke-width:1;stroke-miterlimit:4;stroke-dasharray:none;stroke-opacity:1"
       id="path965"
       cx="104.31958"
       cy="105.94656"
       rx="57.969585"
       ry="54.453163" />
    <g
       id="g971"
       clip-path="url(#clipPath867)"
       transform="matrix(0.35277777,0,0,-0.35277777,-127.16137,217.45786)"
       style="fill:#ffffff">
      <g
         id="g969"
         transform="translate(671.53207,427.20591)"
         style="fill:#ffffff">
        <path
           d="m 0,0 c 5.779,-0.129 12.116,0.741 17.454,-1.909 3.415,-3.324 6,-7.402 9.4,-10.74 7.377,1.428 14.845,1.17 22.247,0.13 4.687,4.013 7.142,11.818 14.193,12.078 4.077,0.324 8.584,1.324 12.48,-0.208 -1.675,-5.507 -4.624,-11.09 -9.947,-13.818 -4.131,-2.506 -9.105,-2.454 -13.766,-2.389 0.493,-2.779 2.234,-5.052 3.208,-7.635 -1.533,-3.636 -4.74,-6.429 -5.533,-10.415 -1.35,-5.987 -4.246,-12.116 -2.362,-18.299 2.83,-11.492 3.128,-23.425 2.505,-35.191 -0.468,-6.103 -1.35,-12.312 -3.818,-17.96 -1.948,-4.492 -5.596,-7.883 -8.311,-11.883 -3.311,-6.194 -3.922,-13.673 -8.259,-19.348 -4.285,-5.467 -13.232,-1.118 -17.271,-7.065 -4.974,-8.299 -7.831,-17.685 -10.83,-26.828 -1.988,-5.286 -0.247,-11.169 -2.481,-16.364 -3.675,-8.79 -6.142,-18.233 -6.415,-27.777 1.182,-5.142 5.337,-9.142 6.194,-14.493 -4.247,-0.271 -8.519,-0.362 -12.778,-0.129 -2.922,14.571 3.909,28.687 2.974,43.232 -0.467,4.922 2.974,9.193 2.532,14.115 -0.39,10.22 -1.52,20.4 -1.597,30.634 -8.351,0.558 -16.688,1.35 -25.05,1.688 -5.012,0.337 -9.039,-3.194 -13.065,-5.623 -7.959,-5.623 -15.921,-11.376 -22.919,-18.18 -3.559,-2.961 -3.182,-8.052 -1.78,-12.025 3.156,-9.598 7.429,-18.765 11.104,-28.168 2.922,-8.7 10.79,-15.439 10.311,-25.244 -4.338,-0.571 -8.728,-0.545 -13.053,0.17 -0.245,4.7 -0.129,9.402 0.027,14.101 -0.897,-0.714 -2.701,-2.154 -3.598,-2.87 -0.558,4.027 -0.829,8.168 -2.452,11.96 -5.286,13.09 -12.104,25.907 -13.806,40.103 -0.857,6.181 1.675,12.542 6.273,16.674 2.414,2.168 5.336,3.803 7.325,6.426 -9.39,-2.441 -16.376,-9.635 -23.104,-16.166 -5.428,-6.156 -12.154,-12.533 -12.765,-21.207 -0.623,-7.362 0.715,-14.712 0.948,-22.063 0.092,-9.701 8.325,-17.012 8.195,-26.829 -4.661,-0.599 -9.364,-0.61 -14.013,-0.065 -0.246,4.533 0.949,8.921 2.156,13.233 -1.507,1.232 -2.922,2.7 -2.818,4.805 -0.882,12.894 -1.882,25.829 -1.882,38.75 5.74,6.611 11.388,13.649 14.037,22.154 2.416,6.675 0.298,13.739 0.078,20.569 -0.48,6.909 1.027,13.727 3.117,20.258 -4.948,1.365 -5.298,-4.595 -7.272,-7.634 -1.221,1.687 -2.48,3.545 -2.014,5.752 0.82,12.154 10.533,22.322 21.752,26.077 6.235,2.298 12.935,0.999 19.35,0.583 9.506,-0.57 18.998,-1.779 28.544,-1.233 8.803,0.142 17.14,3.857 26.01,3.428 8.649,0.248 18.18,-1.168 25.92,3.571 8.376,6.35 10.935,17.22 13.285,26.907 1.663,5.831 -1.273,11.532 -2.364,17.181 -0.57,4.091 -3.7,6.882 -5.817,10.181 0.948,2.701 2.325,5.22 3.597,7.779 -5.363,0.298 -11.167,0.416 -15.701,3.74 C 3.752,-10.428 1.441,-5.142 0,0 m 19.271,-144.157 c 1.611,0.79 3.221,1.557 4.857,2.284 2.468,-10.336 -1.74,-20.544 -1.519,-30.893 -0.091,-6.013 4.415,-10.857 4.532,-16.857 0.598,-8.233 2.623,-16.387 6.065,-23.906 1.492,-3.506 5.311,-4.792 8.064,-7.078 2.935,-2.207 4.077,-5.871 5.712,-9 -4.661,-0.869 -9.414,-0.791 -14.088,-0.064 -5.143,9.882 -7.818,20.752 -11.584,31.179 -1.571,4.467 -5.078,8.143 -5.636,12.973 -0.857,8.064 -6.778,14.18 -10.051,21.323 4.856,6.482 5.337,16.661 13.648,20.039"
           style="fill:#ffffff;fill-opacity:1;fill-rule:nonzero;stroke:none"
           id="path967" />
      </g>
    </g>
  </g>
</svg>
