<?xml version="1.0" encoding="UTF-8" standalone="no"?>
<svg
   xmlns:dc="http://purl.org/dc/elements/1.1/"
   xmlns:cc="http://creativecommons.org/ns#"
   xmlns:rdf="http://www.w3.org/1999/02/22-rdf-syntax-ns#"
   xmlns:svg="http://www.w3.org/2000/svg"
   xmlns="http://www.w3.org/2000/svg"
   xmlns:sodipodi="http://sodipodi.sourceforge.net/DTD/sodipodi-0.dtd"
   xmlns:inkscape="http://www.inkscape.org/namespaces/inkscape"
   width="116.93917mm"
   height="109.90633mm"
   viewBox="0 0 116.93917 109.90633"
   version="1.1"
   id="svg8"
   inkscape:version="1.0.2 (e86c870879, 2021-01-15)"
   sodipodi:docname="euroboar_icon.svg">
  <defs
     id="defs2">
    <clipPath
       clipPathUnits="userSpaceOnUse"
       id="clipPath867">
      <path
         d="M 0,850.39 H 1598.74 V 0 H 0 Z"
         id="path865" />
    </clipPath>
    <clipPath
       clipPathUnits="userSpaceOnUse"
       id="clipPath1025">
      <path
         d="M 0,850.39 H 1598.74 V 0 H 0 Z"
         id="path1023" />
    </clipPath>
    <clipPath
       clipPathUnits="userSpaceOnUse"
       id="clipPath1041">
      <path
         d="M 0,850.39 H 1598.74 V 0 H 0 Z"
         id="path1039" />
    </clipPath>
    <clipPath
       clipPathUnits="userSpaceOnUse"
       id="clipPath1164">
      <path
         d="M 0,850.39 H 1598.74 V 0 H 0 Z"
         id="path1162" />
    </clipPath>
    <clipPath
       clipPathUnits="userSpaceOnUse"
       id="clipPath1180">
      <path
         d="M 0,850.39 H 1598.74 V 0 H 0 Z"
         id="path1178" />
    </clipPath>
  </defs>
  <sodipodi:namedview
     id="base"
     pagecolor="#ffffff"
     bordercolor="#666666"
     borderopacity="1.0"
     inkscape:pageopacity="0.0"
     inkscape:pageshadow="2"
     inkscape:zoom="0.35"
     inkscape:cx="226.70868"
     inkscape:cy="367.26904"
     inkscape:document-units="mm"
     inkscape:current-layer="layer1"
     inkscape:document-rotation="0"
     showgrid="false"
     inkscape:window-width="1920"
     inkscape:window-height="1016"
     inkscape:window-x="0"
     inkscape:window-y="27"
     inkscape:window-maximized="1"
     fit-margin-top="0"
     fit-margin-left="0"
     fit-margin-right="0"
     fit-margin-bottom="0" />
  <metadata
     id="metadata5">
    <rdf:RDF>
      <cc:Work
         rdf:about="">
        <dc:format>image/svg+xml</dc:format>
        <dc:type
           rdf:resource="http://purl.org/dc/dcmitype/StillImage" />
        <dc:title></dc:title>
      </cc:Work>
    </rdf:RDF>
  </metadata>
  <g
     inkscape:label="Layer 1"
     inkscape:groupmode="layer"
     id="layer1"
     transform="translate(-45.849995,-50.993401)">
    <ellipse
       style="fill:#89a828;fill-opacity:1;stroke:#000000;stroke-width:1;stroke-miterlimit:4;stroke-dasharray:none;stroke-opacity:1"
       id="path965"
       cx="104.31958"
       cy="105.94656"
       rx="57.969585"
       ry="54.453163" />
    <g
       id="g1156"
       inkscape:label="CINGHIALE_P"
       transform="matrix(0.35277777,0,0,-0.35277777,-135.66985,88.672172)">
      <g
         id="g1158"
         transform="translate(462.23649,-467.79275)">
        <g
           id="g1160"
           clip-path="url(#clipPath1164)">
          <g
             id="g1166"
             transform="translate(279.9321,489.1216)">
            <path
               d="m 0,0 c 3.348,-0.294 5.671,2.713 8.769,3.399 1.654,0.153 3.324,0.071 4.998,0.071 -0.379,-1.197 -0.703,-2.405 -0.955,-3.633 2.509,1.058 4.775,2.657 7.36,3.527 1.773,0.223 3.567,0.1 5.363,0.092 -3.433,-8.19 -6.792,-16.406 -10.132,-24.633 1.509,-2.762 2.958,-5.622 5.291,-7.799 2.768,-2.664 5.043,-5.82 7.946,-8.347 3.937,-2.533 8.11,-4.7 12.095,-7.171 1.786,4.188 3.244,8.51 4.231,12.95 3.912,-4.679 3.609,-11.148 2.803,-16.828 2.012,-1.038 4.026,-2.057 6.048,-3.06 0.445,0.352 1.353,1.064 1.8,1.421 2.624,-0.963 5.258,-1.9 7.898,-2.828 -4.076,-8.989 -7.636,-18.223 -12.143,-27.01 -5.113,1.736 -10.687,2.156 -15.543,4.533 -1.495,-0.394 -2.975,-0.82 -4.485,-1.119 -4.946,-2.34 -9.812,-4.85 -14.994,-6.635 -8.079,-1.933 -16.807,-2.935 -24.81,-0.051 -2.17,-5.964 -5.668,-11.351 -7.957,-17.267 -0.945,-4.403 -1.451,-8.893 -2.29,-13.32 -0.634,-2.911 -0.384,-6.102 1.212,-8.672 3.629,-5.948 7.151,-11.965 10.778,-17.907 0.702,-1.011 0.627,-2.273 0.759,-3.437 -5.136,0.014 -10.273,0.043 -15.416,-0.018 -5.922,11.229 -11.807,22.489 -17.701,33.741 -0.675,1.39 -1.378,2.781 -2.427,3.923 -1.051,-5.103 -4.608,-9.927 -3.31,-15.308 2.241,-6.112 4.581,-12.203 6.886,-18.295 0.538,-1.279 0.661,-2.668 0.791,-4.037 -5.15,0 -10.303,0.015 -15.451,0 -4.402,13.799 -8.674,27.646 -13.077,41.453 -0.763,2.308 -0.601,4.762 -0.587,7.158 -9.949,1.686 -19.916,3.291 -29.86,4.986 -5.511,1.176 -11.166,0.422 -16.743,0.676 -1.954,-5.588 -3.764,-11.23 -5.731,-16.82 -4.994,-3.203 -9.926,-6.508 -14.848,-9.822 -1.89,-0.996 -1.475,-3.545 -1.075,-5.282 2.364,-4.955 4.981,-9.797 7.417,-14.728 1.148,-2.461 2.949,-4.76 2.859,-7.613 -5.149,-0.014 -10.293,0.017 -15.444,-0.014 -4.034,10.984 -8.207,21.924 -12.143,32.951 -3.326,-1.418 -6.326,-3.457 -9.505,-5.143 -2.16,-0.88 -2.714,-3.449 -2.876,-5.525 0.969,-7.453 3.024,-14.771 3.505,-22.283 -5.152,0.006 -10.302,0.031 -15.455,0 -0.904,14.484 -1.939,28.955 -2.958,43.43 4.205,4.919 8.304,9.912 12.553,14.794 -3.074,6.995 -5.121,14.346 -6.515,21.836 -0.365,3.01 -0.12,6.038 0.027,9.057 -0.424,-0.041 -1.264,-0.123 -1.687,-0.165 -0.768,-3.195 -2.022,-6.324 -1.998,-9.657 -0.05,-4.719 -0.106,-9.447 0.072,-14.174 -1.441,1.77 -4.978,2.281 -4.407,5.166 0.145,6.057 -0.4,12.184 0.74,18.178 0.409,2.467 1.899,4.562 2.561,6.958 1.237,3.662 4.833,5.609 7.211,8.438 3.049,3.405 4.508,7.841 7.213,11.492 6.658,9.692 17.011,16.603 28.35,19.57 12.906,3.527 26.407,1.139 39.56,2.182 14.084,2.101 28.178,4.147 42.253,6.26 3.82,0.586 7.694,0.351 11.539,0.39 C -27.755,0.015 -13.882,0.065 0,0"
               style="fill:#ffffff;fill-opacity:1;fill-rule:nonzero;stroke:none"
               id="path1168" />
          </g>
        </g>
      </g>
    </g>
  </g>
</svg>
