<?xml version="1.0" encoding="UTF-8" standalone="no"?>
<svg
   xmlns:dc="http://purl.org/dc/elements/1.1/"
   xmlns:cc="http://creativecommons.org/ns#"
   xmlns:rdf="http://www.w3.org/1999/02/22-rdf-syntax-ns#"
   xmlns:svg="http://www.w3.org/2000/svg"
   xmlns="http://www.w3.org/2000/svg"
   xmlns:sodipodi="http://sodipodi.sourceforge.net/DTD/sodipodi-0.dtd"
   xmlns:inkscape="http://www.inkscape.org/namespaces/inkscape"
   width="116.93917mm"
   height="109.90633mm"
   viewBox="0 0 116.93917 109.90633"
   version="1.1"
   id="svg8"
   inkscape:version="1.0.2 (e86c870879, 2021-01-15)"
   sodipodi:docname="eurolynx_icon.svg">
  <defs
     id="defs2">
    <clipPath
       clipPathUnits="userSpaceOnUse"
       id="clipPath867">
      <path
         d="M 0,850.39 H 1598.74 V 0 H 0 Z"
         id="path865" />
    </clipPath>
    <clipPath
       clipPathUnits="userSpaceOnUse"
       id="clipPath1025">
      <path
         d="M 0,850.39 H 1598.74 V 0 H 0 Z"
         id="path1023" />
    </clipPath>
    <clipPath
       clipPathUnits="userSpaceOnUse"
       id="clipPath1041">
      <path
         d="M 0,850.39 H 1598.74 V 0 H 0 Z"
         id="path1039" />
    </clipPath>
    <clipPath
       clipPathUnits="userSpaceOnUse"
       id="clipPath1164">
      <path
         d="M 0,850.39 H 1598.74 V 0 H 0 Z"
         id="path1162" />
    </clipPath>
    <clipPath
       clipPathUnits="userSpaceOnUse"
       id="clipPath1180">
      <path
         d="M 0,850.39 H 1598.74 V 0 H 0 Z"
         id="path1178" />
    </clipPath>
    <clipPath
       clipPathUnits="userSpaceOnUse"
       id="clipPath1289">
      <path
         d="M 0,379.485 H 1456.056 V 0 H 0 Z"
         id="path1287" />
    </clipPath>
    <clipPath
       clipPathUnits="userSpaceOnUse"
       id="clipPath1398">
      <path
         d="M 0,850.39 H 1598.74 V 0 H 0 Z"
         id="path1396" />
    </clipPath>
  </defs>
  <sodipodi:namedview
     id="base"
     pagecolor="#ffffff"
     bordercolor="#666666"
     borderopacity="1.0"
     inkscape:pageopacity="0.0"
     inkscape:pageshadow="2"
     inkscape:zoom="0.35"
     inkscape:cx="-242.91608"
     inkscape:cy="435.79865"
     inkscape:document-units="mm"
     inkscape:current-layer="layer1"
     inkscape:document-rotation="0"
     showgrid="false"
     inkscape:window-width="1920"
     inkscape:window-height="1016"
     inkscape:window-x="0"
     inkscape:window-y="27"
     inkscape:window-maximized="1"
     fit-margin-top="0"
     fit-margin-left="0"
     fit-margin-right="0"
     fit-margin-bottom="0" />
  <metadata
     id="metadata5">
    <rdf:RDF>
      <cc:Work
         rdf:about="">
        <dc:format>image/svg+xml</dc:format>
        <dc:type
           rdf:resource="http://purl.org/dc/dcmitype/StillImage" />
        <dc:title></dc:title>
      </cc:Work>
    </rdf:RDF>
  </metadata>
  <g
     inkscape:label="Layer 1"
     inkscape:groupmode="layer"
     id="layer1"
     transform="translate(-45.849995,-50.993401)">
    <g
       id="g1285"
       clip-path="url(#clipPath1289)"
       transform="matrix(0.35277777,0,0,-0.35277777,-171.30633,-38.064556)" />
    <ellipse
       style="fill:#dc7e18;fill-opacity:1;stroke:#000000;stroke-width:1;stroke-miterlimit:4;stroke-dasharray:none;stroke-opacity:1"
       id="path965"
       cx="104.31958"
       cy="105.94656"
       rx="57.969585"
       ry="54.453163" />
    <g
       id="g1386"
       inkscape:label="LINCE_P"
       transform="matrix(0.35277777,0,0,-0.35277777,-191.35653,46.832057)">
      <g
         id="g1392"
         transform="translate(525.12842,-458.62885)">
        <g
           id="g1394"
           clip-path="url(#clipPath1398)">
          <g
             id="g1428"
             transform="translate(311.2446,522.7343)">
            <path
               d="m 61.5,-127.5 c 0.826,-3.046 1.353,-6.176 2.328,-9.181 1.825,-3.453 4.674,-6.631 8.408,-8.013 4.847,-1.25 9.85,0.144 14.597,1.227 3.751,-1.293 7.941,-1.185 11.34,-3.477 0.359,-0.018 1.083,-0.054 1.442,-0.072 2.975,2.657 5.243,6.338 8.983,7.99 1.419,1.909 2.196,4.823 4.656,5.607 h 0.999 v -0.82 c -2.16,-1.341 -3.752,-3.345 -5.056,-5.488 1.023,-2.944 2.142,-6.038 1.55,-9.204 -0.922,-4.417 -2.645,-8.624 -5.141,-12.376 -0.191,-2.711 1.448,-5.206 1.376,-7.923 -0.024,-2.406 -0.497,-4.932 -1.986,-6.889 -2.179,-2.764 -4.663,-5.35 -6.314,-8.485 -0.826,-2.089 -1.293,-4.315 -2.31,-6.326 -1.688,-3.321 -1.293,-7.217 -2.616,-10.647 -3.01,-6.104 -6.038,-12.31 -10.652,-17.397 -2.304,-4.159 -5.051,-8.211 -8.606,-11.4 -0.03,-0.228 -0.102,-0.683 -0.131,-0.91 -5.512,-6.451 -8.247,-14.692 -9.833,-22.903 -1.017,-5.553 -2.49,-11.095 -2.316,-16.792 0.15,-4.16 -0.569,-8.564 1.197,-12.49 0.706,-1.478 1.377,-3.298 3.046,-3.92 2.089,-0.784 4.171,-2.016 6.487,-1.729 1.694,0.149 3.364,-0.21 5.01,-0.587 1.747,-2.453 2.914,-5.296 2.417,-8.366 -1.688,-0.653 -3.447,-1.083 -5.23,-1.341 -0.503,-0.419 -1.006,-0.838 -1.502,-1.263 0.388,-2.214 1.154,-4.488 0.73,-6.756 -0.509,-1.591 -2.322,-1.796 -3.639,-2.387 -1.939,-2.233 -4.817,-0.982 -7.325,-1.096 -2.609,0.066 -5.237,-0.826 -7.816,-0.186 -1.681,1.102 -2.747,2.903 -4.028,4.412 -2.387,2.902 -2.938,6.732 -4.212,10.161 -0.964,2.633 -0.162,5.422 -0.372,8.121 -0.694,2.303 -2.046,4.369 -2.591,6.726 -1.502,5.255 -0.018,10.719 -0.802,16.051 -0.916,7.612 -2.107,15.2 -3.046,22.813 -0.55,3.603 0.233,7.223 1.083,10.712 -3.919,-0.197 -7.899,-0.61 -11.484,-2.334 0.329,0.653 0.658,1.305 0.982,1.958 -1.365,-0.611 -2.646,-1.544 -4.16,-1.718 -3.62,-0.203 -7.253,-0.216 -10.874,-0.036 -0.407,-0.419 -0.808,-0.838 -1.209,-1.257 -0.101,0.449 -0.299,1.346 -0.401,1.796 -0.406,-0.438 -1.227,-1.305 -1.633,-1.736 -1.82,0.215 -3.6149999,0.533 -5.4099999,0.856 -0.617,0.383 -1.149,0.855 -1.497,1.49 -0.263,-0.323 -0.789,-0.958 -1.053,-1.281 -3.279,0.437 -6.5530001,-0.173 -9.8030001,-0.586 -0.065,0.31 -0.203,0.933 -0.274,1.244 -0.563,-0.263 -1.12,-0.532 -1.682,-0.802 -0.934,0.084 -1.867,0.132 -2.807,0.126 l 0.269,1.035 c -1.729,-1.789 -2.4,-4.182 -3.399,-6.391 -5.685,-10.27 -11.191,-20.628 -16.978,-30.844 -1.508,-2.406 -1.119,-5.303 -0.598,-7.941 2.627,-2.053 4.081,-5.118 6.205,-7.613 1.886,-2.299 4.279,-4.111 6.146,-6.427 1.88,-2.329 4.321,-4.357 7.332,-4.961 2.735,-0.748 5.643,0.922 8.288,-0.324 1.55600003,-0.879 1.94500003,-2.783 2.37600003,-4.375 0.353,-1.471 0.431,-3.369 -0.808,-4.463 C -3.324,-308.155 -6.287,-308.454 -9.111,-308.514 c -3.95,-0.407 -8.008,-0.563 -11.91,0.287 -3.555,0.748 -5.769,3.86 -8.049,6.404 -5.583,6.594 -11.64,12.764 -17.876,18.743 -1.568,1.52 -3.195,3.231 -3.578,5.47 -0.73,3.513 0.64,6.954 1.639,10.263 2.197,6.943 3.01,14.28 2.478,21.538 0.257,3.459 -0.419,6.877 -1.736,10.073 -3.19,-3.938 -3.261,-9.325 -5.984,-13.495 -3.322,-4.668 -8.229,-7.739 -12.627,-11.263 -8.552,-6.087 -16.638,-12.939 -26.063,-17.673 -3.77,-1.789 -7.05,-4.518 -9.659,-7.756 -1.64,-2.005 -1.79,-4.697 -2.178,-7.151 -0.419,-3.477 -1.03,-7.05 -0.336,-10.527 1.76,-2.741 5.326,-3.357 7.709,-5.386 1.334,-1.562 1.358,-3.783 1.28,-5.721 -0.041,-1.144 -0.299,-2.562 -1.526,-3.004 -2.675,-1.174 -5.475,-2.209 -8.408,-2.424 -3.95,-0.233 -8.049,-0.497 -11.826,0.921 -0.269,4.609 -3.051,8.947 -1.795,13.61 0.593,2.716 0.509,5.505 0.485,8.264 -0.144,5.189 -0.245,10.389 -0.018,15.571 0.299,3.43 0.317,7.014 1.783,10.186 1.311,2.029 3.495,3.25 5.374,4.692 4.992,3.1 6.787,9.061 10.713,13.184 1.502,2.705 3.393,5.225 4.357,8.199 0.155,0.18 0.472,0.544 0.628,0.724 0.694,1.861 1.412,3.74 2.579,5.368 1.011,3.273 1.82,6.607 3.01,9.827 -0.071,0.161 -0.215,0.49 -0.287,0.652 1.185,5.691 1.7,11.538 1.394,17.349 -3.632,-2.597 -7.618,-5.111 -12.154,-5.607 -5.177,-0.377 -10.712,0.49 -14.878,3.8 -1.777,1.215 -3.692,2.412 -4.703,4.393 -2.298,3.165 -0.024,7.085 1.017,10.299 0.587,0.598 1.191,1.179 1.801,1.753 0.629,0.557 1.269,1.096 1.921,1.622 0.976,0.054 1.963,0.216 2.939,0.018 1.897,-1.065 3.243,-2.86 5.051,-4.069 1.986,-1.557 4.686,-1.574 7.067,-1.215 3.866,0.67 6.607,3.716 9.791,5.739 2.31,1.454 3.238,4.387 5.745,5.595 1.777,0.82 3.705,1.335 5.357,2.412 4.075,2.825 8.749,4.584 13.327,6.404 4.051,1.328 7.642,3.71 11.67,5.098 10.078,3.83 20.958,4.543 31.616,5.147 6.781,-0.113 13.573,0.371 20.347,-0.216 5.1890001,-0.322 10.3720001,-1.214 15.572,-0.873 5.189,0.658 10.365,-0.425 15.554,-0.592 9.707,-0.084 19.372,1.621 28.582,4.637 3.459,1.365 7.098,2.185 10.76,2.801 1.161,4.854 -0.281,10.299 -4.057,13.651 0.472,-0.108 1.412,-0.323 1.885,-0.437 -2.729,4.285 -3.974,9.803 -2.418,14.728 0.538,2.52 -0.706,4.991 -1.335,7.385 0.144,0.407 0.437,1.215 0.581,1.616"
               style="fill:#ffffff;fill-opacity:1;fill-rule:nonzero;stroke:none"
               id="path1430" />
          </g>
        </g>
      </g>
    </g>
  </g>
</svg>
